<svg width="30" height="30" viewBox="0 0 30 30" fill="none" xmlns="http://www.w3.org/2000/svg">
<path d="M26.0533 21.4313C25.6374 22.3921 25.1451 23.2765 24.5748 24.0896C23.7973 25.198 23.1608 25.9653 22.6702 26.3914C21.9097 27.0907 21.095 27.4489 20.2225 27.4693C19.5961 27.4693 18.8407 27.291 17.9614 26.9295C17.0792 26.5696 16.2685 26.3914 15.5272 26.3914C14.7498 26.3914 13.916 26.5696 13.0241 26.9295C12.1309 27.291 11.4114 27.4795 10.8612 27.4981C10.0245 27.5338 9.19055 27.1654 8.35811 26.3914C7.8268 25.928 7.16224 25.1335 6.36612 24.0081C5.51195 22.8063 4.80971 21.4127 4.25955 19.8238C3.67036 18.1077 3.375 16.4458 3.375 14.837C3.375 12.994 3.77323 11.4045 4.57087 10.0725C5.19775 9.00256 6.03172 8.15858 7.0755 7.539C8.11928 6.91942 9.24708 6.60369 10.4616 6.58349C11.1262 6.58349 11.9977 6.78905 13.0807 7.19305C14.1606 7.59841 14.854 7.80397 15.158 7.80397C15.3853 7.80397 16.1556 7.56361 17.4615 7.08441C18.6964 6.64001 19.7387 6.45601 20.5925 6.52849C22.9062 6.71521 24.6444 7.62727 25.8004 9.27043C23.7311 10.5242 22.7076 12.2802 22.7279 14.533C22.7466 16.2876 23.3832 17.7478 24.6342 18.9072C25.2011 19.4453 25.8343 19.8612 26.5388 20.1565C26.386 20.5996 26.2247 21.0239 26.0533 21.4313ZM20.747 0.550645C20.747 1.92596 20.2445 3.21009 19.243 4.39866C18.0344 5.81164 16.5725 6.62813 14.9873 6.49929C14.9671 6.3343 14.9554 6.16064 14.9554 5.97817C14.9554 4.65787 15.5301 3.24488 16.5508 2.08958C17.0604 1.50463 17.7085 1.01825 18.4944 0.630256C19.2787 0.248051 20.0205 0.036684 20.7181 0.000488281C20.7385 0.184346 20.747 0.368216 20.747 0.550627V0.550645Z" fill="#CAFF33"/>
</svg>
