<svg width="24" height="24" viewBox="0 0 24 24" fill="none" xmlns="http://www.w3.org/2000/svg">
  <path d="M6.14352 4.75H9.1768C9.64208 4.75 10.046 5.07036 10.1517 5.52347L10.7928 8.27098C10.8836 8.65985 10.7481 9.06655 10.4433 9.32318L8.37673 11.0634C9.44783 13.2182 11.1961 14.956 13.3538 16.0139L15.0918 13.9506C15.3485 13.6458 15.7552 13.5103 16.144 13.6011L18.8915 14.2422C19.3447 14.3479 19.665 14.7518 19.665 15.2171V18.2504C19.665 18.9407 19.1054 19.5004 18.415 19.5004H17.415C10.0972 19.5004 4.16504 13.5682 4.16504 6.25036V5.25036C4.16504 4.56 4.72468 4.00036 5.41504 4.00036H6.14352V4.75Z" stroke="#CAFF33" stroke-width="1.8" stroke-linecap="round" stroke-linejoin="round"/>
</svg>
